<?xml version="1.0" standalone="no"?><!DOCTYPE svg PUBLIC "-//W3C//DTD SVG 1.1//EN" "http://www.w3.org/Graphics/SVG/1.1/DTD/svg11.dtd"><svg t="1551886594669" class="icon" style="" viewBox="0 0 1024 1024" version="1.1" xmlns="http://www.w3.org/2000/svg" p-id="3657" xmlns:xlink="http://www.w3.org/1999/xlink" width="64" height="64"><defs><style type="text/css"></style></defs><path d="M512 989.866667A427.246933 427.246933 0 0 1 85.333333 563.2V185.685333A151.6544 151.6544 0 0 1 236.885333 34.133333h550.229334a151.6544 151.6544 0 0 1 151.552 151.552V563.2A427.246933 427.246933 0 0 1 512 989.866667zM236.885333 102.4A83.182933 83.182933 0 0 0 153.6 185.685333V563.2a358.4 358.4 0 0 0 716.8 0V185.685333A83.182933 83.182933 0 0 0 787.114667 102.4H236.885333z m214.698667 364.544l-48.128-48.128 168.96-168.96 48.128 48.128z m0 307.2l-48.128-48.128 168.96-168.96 48.128 48.128z" fill="#888888" p-id="3658"></path><path d="M451.584 620.544l-48.128-48.128 168.96-168.96 48.128 48.128z" fill="#888888" p-id="3659"></path></svg>