<?xml version="1.0" standalone="no"?><!DOCTYPE svg PUBLIC "-//W3C//DTD SVG 1.1//EN" "http://www.w3.org/Graphics/SVG/1.1/DTD/svg11.dtd"><svg t="1551884235841" class="icon" style="" viewBox="0 0 1024 1024" version="1.1" xmlns="http://www.w3.org/2000/svg" p-id="3487" xmlns:xlink="http://www.w3.org/1999/xlink" width="64" height="64"><defs><style type="text/css"></style></defs><path d="M463.725714 739.748571a291.072 291.072 0 0 1-204.214857-82.688 279.113143 279.113143 0 0 1 0-400 293.467429 293.467429 0 0 1 408.411429 0 279.076571 279.076571 0 0 1 0 400 290.998857 290.998857 0 0 1-204.196572 82.688z m0-500.150857a223.945143 223.945143 0 0 0-157.092571 63.616 214.710857 214.710857 0 0 0 0 307.693715 225.773714 225.773714 0 0 0 314.166857 0 214.656 214.656 0 0 0 0-307.693715 223.872 223.872 0 0 0-157.074286-63.542857z m337.755429 609.755429L660.114286 710.875429l47.122285-46.134858 141.366858 138.459429z" fill="#888888" p-id="3488"></path></svg>